<svg width="330" height="77" viewBox="0 0 330 77" fill="none" xmlns="http://www.w3.org/2000/svg">
<g clip-path="url(#clip0_83_1832)">
<path d="M49.7882 55.9243L48.6733 56.1213C40.9022 45.0911 33.1452 34.061 25.4023 23.0308C23.4266 20.217 21.1686 17.7971 17.697 20.3577C14.2254 22.9183 16.187 25.5633 18.0075 28.152C27.6414 41.9396 37.2895 55.7461 46.9517 69.5713C49.0967 72.6665 51.3829 75.1145 55.546 73.7217C59.7091 72.3288 59.695 69.0648 59.6809 65.5757C59.6809 48.1863 59.6809 30.7969 59.6809 13.4076C59.6809 10.5938 60.2171 7.6252 59.4551 5.03649C58.8906 3.12309 56.6326 0.449972 55.1085 0.407765C53.5844 0.365558 51.3264 2.81358 50.0987 4.53C49.3366 5.62739 49.7882 7.59706 49.7882 9.17279C49.7788 24.7613 49.7788 40.3452 49.7882 55.9243Z" fill="white"/>
<path d="M276.035 58.3167C270.461 45.4716 265.422 33.935 260.511 22.3702C259.1 19.0218 256.856 16.8833 253.187 18.656C249.772 20.3162 250.167 23.2425 251.522 26.3377C257.985 41.0962 264.223 55.8828 270.884 70.6271C271.745 72.5546 274.285 75.1714 275.837 75.0308C277.813 74.8619 280.339 72.5687 281.285 70.5568C285.518 61.7074 289.202 52.6187 293.082 43.6145C295.651 37.6633 298.163 31.698 300.759 25.7468C302.058 22.7923 302.044 20.0488 298.826 18.5997C295.608 17.1506 293.181 18.8108 291.77 22.0185L290.119 25.8875C285.561 36.2986 281.059 46.7238 276.035 58.3167Z" fill="white"/>
<path d="M125.19 37.2406C125.19 27.0452 125.19 16.8451 125.19 6.64037C125.19 3.43262 124.766 0.407773 120.702 0.224875C116.327 0.0138392 115.509 3.16531 115.494 6.58409C115.438 26.806 115.438 47.0233 115.494 67.2358C115.494 70.5421 116.115 73.9468 120.42 73.9468C124.724 73.9468 125.26 70.7672 125.246 67.3062C125.175 57.2749 125.204 47.2578 125.19 37.2406Z" fill="white"/>
<path d="M0 36.6777C0 46.8637 0 57.0497 0 67.2357C0 70.6545 0.366918 73.9185 4.72759 73.9185C8.60845 73.9185 9.68098 70.9358 9.69509 67.7281C9.77036 47.3561 9.77036 26.9888 9.69509 6.62614C9.68098 3.2355 8.56611 -0.000390238 4.41712 0.168439C0.268132 0.337267 0 3.41839 0 6.65428C0 16.6574 0 26.7308 0 36.6777Z" fill="white"/>
<path d="M138.3 43.7124C144.029 37.4094 149.392 31.613 154.6 25.704C156.618 23.4248 157.591 20.7094 154.938 18.2614C152.285 15.8134 149.646 16.8545 147.529 19.1196C141.179 25.9431 134.927 32.8229 128.689 39.7449C126.163 42.5587 126.319 45.3725 128.944 48.1863C131.131 50.4655 133.177 52.8151 135.435 55.0942C141.08 60.9188 146.457 66.9545 152.37 72.3851C153.696 73.5951 156.956 72.7087 159.327 72.7791C159.327 70.5561 160.019 67.9252 159.087 66.1947C157.676 63.6482 155.164 61.7489 153.118 59.5823L138.3 43.7124Z" fill="white"/>
<path d="M83.4031 46.1467C83.4031 53.5048 83.4031 60.877 83.4031 68.2351C83.4031 71.4288 84.3627 74.3833 87.9049 73.7643C89.7818 73.4266 92.5902 70.6409 92.6325 68.8964C93.0135 54.1942 92.9006 39.4639 92.8019 24.7336C92.8019 21.6946 91.6305 19.1059 87.8485 19.331C84.0664 19.5561 83.3608 21.9057 83.4031 25.0994C83.4737 32.1198 83.4172 39.1262 83.4031 46.1467Z" fill="white"/>
<path d="M319.007 46.7515C319.007 53.786 319.007 60.8206 319.007 67.8551C319.007 71.1895 319.868 74.0174 323.791 74.0174C327.714 74.0174 328.815 71.0488 328.815 67.8692C328.947 53.8001 328.947 39.7639 328.815 25.7605C328.815 22.4683 327.898 19.2324 323.537 19.3872C319.176 19.5419 318.979 22.9607 318.965 26.2247C318.936 33.0764 319.007 39.9139 319.007 46.7515Z" fill="white"/>
<path d="M88.2438 12.6622C92.0118 12.2682 94.4391 10.1297 94.3968 6.33108C94.3544 2.53243 92.04 0.225105 88.145 0C87.3111 0.0064665 86.4866 0.176628 85.7186 0.500769C84.9506 0.82491 84.2541 1.29668 83.669 1.88915C83.0839 2.48162 82.6216 3.18318 82.3084 3.95377C81.9953 4.72437 81.8375 5.54891 81.8439 6.38032C81.8504 7.21173 82.0211 8.03373 82.3462 8.79937C82.6714 9.56502 83.1446 10.2593 83.7389 10.8426C84.3332 11.426 85.0369 11.8869 85.8098 12.1991C86.5828 12.5113 87.4099 12.6686 88.2438 12.6622V12.6622Z" fill="white"/>
<path d="M324.129 0C319.895 0.365796 317.524 2.27919 317.524 6.31701C317.524 10.3548 319.768 12.5637 323.72 12.5918C327.671 12.62 329.971 10.4533 330 6.42956C330.028 2.40581 327.572 0.506486 324.129 0Z" fill="white"/>
<path d="M235.533 46.5824C235.536 51.4761 234.355 56.2985 232.09 60.64C229.825 64.9815 226.542 68.7141 222.521 71.5208C218.5 74.3275 213.859 76.1255 208.992 76.7622C204.125 77.3989 199.176 76.8555 194.564 75.1781C189.953 73.5006 185.815 70.7387 182.503 67.1268C179.191 63.5149 176.802 59.1596 175.539 54.4306C174.276 49.7017 174.176 44.7387 175.248 39.963C176.319 35.1873 178.531 30.7399 181.695 26.9983C183.059 25.365 184.597 23.8838 186.281 22.5806C190.791 19.088 196.192 16.9265 201.872 16.3417C207.553 15.7569 213.283 16.7722 218.414 19.2723C223.544 21.7724 227.868 25.657 230.894 30.4847C233.92 35.3124 235.527 40.8895 235.533 46.5824V46.5824Z" fill="white"/>
<path d="M225.118 46.4283C224.518 50.4378 222.796 54.1975 220.15 57.2756C218.998 58.6198 217.69 59.824 216.255 60.8632C212.359 63.651 207.527 64.8151 202.784 64.1085C198.041 63.4019 193.761 60.8801 190.853 57.0786C189.695 55.5546 188.855 53.814 188.385 51.9603C187.915 50.1065 187.823 48.1774 188.115 46.2876C188.407 44.3805 189.078 42.5507 190.089 40.9054C191.099 39.2602 192.429 37.8327 194 36.7066C196.6 34.8537 199.821 34.082 202.982 34.5546C206.142 35.0273 208.995 36.7072 210.935 39.239C211.718 40.2676 212.286 41.443 212.604 42.6952C212.921 43.9474 212.982 45.2505 212.784 46.5268C212.59 47.8152 212.14 49.0518 211.459 50.1634C210.778 51.2751 209.88 52.2392 208.818 52.9986C207.044 54.2712 204.841 54.8026 202.679 54.4793C200.517 54.156 198.568 53.0037 197.246 51.2681C196.701 50.5556 196.304 49.7415 196.08 48.8738C195.855 48.0061 195.808 47.1024 195.939 46.2159C196.071 45.3295 196.379 44.4783 196.846 43.7125C197.313 42.9468 197.929 42.282 198.657 41.7574C199.902 40.8663 201.446 40.4941 202.961 40.7201C204.476 40.946 205.843 41.7522 206.772 42.9673C207.155 43.481 207.431 44.0655 207.585 44.6867C207.739 45.3079 207.768 45.9535 207.67 46.5859C207.571 47.2183 207.347 47.8248 207.012 48.3702C206.676 48.9156 206.234 49.3889 205.713 49.7627C205.411 49.9792 205.036 50.0681 204.669 50.0102C204.301 49.9522 203.972 49.752 203.752 49.4532C203.642 49.3037 203.563 49.134 203.519 48.954C203.475 48.7739 203.468 48.587 203.497 48.404C203.525 48.221 203.59 48.0455 203.687 47.8875C203.784 47.7296 203.912 47.5923 204.062 47.4835C204.281 47.331 204.466 47.1364 204.607 46.9111C204.749 46.6858 204.844 46.4344 204.886 46.1719C204.928 45.9095 204.917 45.6412 204.853 45.3832C204.789 45.1251 204.674 44.8825 204.514 44.6697C204.033 44.0298 203.318 43.6055 202.525 43.4895C201.732 43.3735 200.925 43.5752 200.28 44.0506C199.852 44.3535 199.49 44.7388 199.214 45.1837C198.939 45.6286 198.755 46.1241 198.675 46.6409C198.595 47.1577 198.619 47.6854 198.747 48.1926C198.875 48.6998 199.103 49.1763 199.419 49.5939C200.297 50.7402 201.588 51.5005 203.019 51.7133C204.45 51.9261 205.907 51.5746 207.082 50.7335C207.845 50.1974 208.491 49.5137 208.982 48.7231C209.474 47.9325 209.801 47.0513 209.943 46.1321C210.085 45.2128 210.04 44.2744 209.81 43.3729C209.581 42.4714 209.171 41.6253 208.606 40.8851C207.109 38.9299 204.906 37.6344 202.465 37.2744C200.024 36.9144 197.539 37.5183 195.538 38.9576C194.275 39.8537 193.204 40.9929 192.389 42.3082C191.574 43.6234 191.031 45.0881 190.793 46.6157C190.555 48.1434 190.626 49.7031 191.003 51.2028C191.379 52.7026 192.053 54.1121 192.984 55.3481C195.435 58.5825 199.061 60.7289 203.083 61.3261C207.105 61.9233 211.201 60.9236 214.491 58.5418C216.67 56.9867 218.497 54.9928 219.854 52.6891C221.743 49.4911 222.644 45.8092 222.446 42.1034C222.248 38.3976 220.958 34.8322 218.739 31.8528C214.752 26.6161 208.878 23.1304 202.36 22.1327C195.842 21.135 189.19 22.7035 183.811 26.5065C183.091 26.6472 182.4 26.802 181.694 26.9989C183.059 25.3657 184.597 23.8845 186.281 22.5812C192.034 19.5432 198.681 18.638 205.04 20.0266C211.399 21.4151 217.059 25.0074 221.011 30.1645C222.755 32.4619 224.018 35.0859 224.723 37.8801C225.429 40.6742 225.563 43.5814 225.118 46.4283V46.4283Z" fill="#F6485A"/>
</g>
<defs>
<clipPath id="clip0_83_1832">
<rect width="330" height="77" fill="white"/>
</clipPath>
</defs>
</svg>
